<?xml version="1.0" encoding="UTF-8"?>
<svg xmlns="http://www.w3.org/2000/svg" version="1.1" viewBox="0 0 4685.54 605.54">
  <!-- Generator: Adobe Illustrator 29.6.1, SVG Export Plug-In . SVG Version: 2.1.1 Build 9)  -->
  <defs>
    <style>
      .st0 {
        isolation: isolate;
      }

      .st1 {
        fill: #ed8d22;
        mix-blend-mode: overlay;
      }

      .st2 {
        fill: #001e50;
      }
    </style>
  </defs>
  <g class="st0">
    <g id="Layer_2">
      <g>
        <path d="M2405.29,570.59h11.88V29.89h-11.88v540.69ZM2913.84,475.08c-96.58,0-173.84-77.27-173.84-173.85s77.26-173.85,173.84-173.85,150.66,77.27,150.66,77.27l77.26-77.27s-77.26-108.17-227.93-108.17c-166.12,0-293.6,127.49-293.6,282.02s127.48,282.02,293.6,282.02c154.53,0,231.79-108.17,231.79-108.17l-77.26-77.27s-54.08,77.27-154.53,77.27ZM3517.27,285.78s73.4-27.04,73.4-112.04c0-77.27-65.67-142.94-173.84-142.94h-227.93v540.86h243.38c115.9,0,185.43-69.54,185.43-154.53,0-104.31-100.44-131.35-100.44-131.35ZM3304.79,131.25h104.31c38.63,0,61.81,23.18,61.81,54.09s-23.18,54.09-61.81,54.09h-104.31v-108.17ZM3424.55,471.22h-119.76v-131.35h119.76c46.36,0,73.4,27.04,73.4,65.68s-27.04,65.68-73.4,65.68ZM3774.55,177.61c0-30.91,23.18-54.09,81.13-54.09,61.81,0,100.44,46.36,100.44,46.36l77.26-77.27s-61.81-73.4-181.57-73.4-197.02,73.4-197.02,158.39c0,189.3,270.42,146.8,270.42,239.52,0,34.77-27.04,61.81-88.85,61.81-81.13,0-127.48-57.95-127.48-57.95l-77.26,77.27s69.54,84.99,208.61,84.99c127.48,0,204.75-77.27,204.75-166.12,0-189.3-270.42-146.8-270.42-239.52Z"/>
        <path class="st2" d="M1566.68,581.38c-112.87,0-183.85-66.67-204.11-132.74l-1.35-4.41,119.38-31.81,1.48,3.61c9.99,24.41,31.83,53.51,79.22,53.51,43.24,0,75.85-33.31,75.85-77.47s-32.61-76.71-75.85-76.71c-34.56,0-57.31,11.82-67.64,35.12l-1.55,3.5-112.29-31.01,48.64-292.94h307.31v121.87h-208.81l-12.89,73.59c11.28-6.65,27.57-9.62,52.61-9.62,115.28,0,202.21,76.42,202.21,177.76,0,107.05-86.93,187.77-202.21,187.77ZM1823.85,570.59l6.24-7.32c22.88-26.84,137.12-160.87,139.57-163.79.59-.7,2.15-2.56,1.64-3.63-.2-.43-1.01-1.16-4.17-1.16-.65,0-1.37.03-2.18.09-3.87.16-7.65.23-11.39.23-59.57,0-108.9-20.07-142.69-58.04-30.07-33.81-46.64-80.79-46.64-132.28,0-110.93,84.36-185.47,209.92-185.47,58.24,0,111.88,17.93,151.04,50.5,42.05,34.97,64.27,83.51,64.27,140.36,0,71.1-29.51,140.29-90.22,211.54l-127.22,148.97h-148.18ZM1977.24,131.83c-45.11,0-76.62,31.54-76.62,76.71s31.51,76.71,76.62,76.71,76.63-31.54,76.63-76.71-31.51-76.71-76.63-76.71ZM636.21,576.77c-153.11,0-277.68-122.47-277.68-273.02S483.1,30.77,636.21,30.77s277.82,122.46,277.82,272.99-124.63,273.02-277.82,273.02ZM635.43,138.55c-24.8,0-45.76,21.62-45.76,47.21l-.05,227.64c0,24.83,20.55,45.04,45.81,45.04s46.49-19.91,46.49-44.39l1.05-228.29c0-25.14-22.22-47.21-47.54-47.21ZM20.07,571.52V29.97h340.12l10.59,151.2h-188.19v65.79h153.16v150.87h-154.42l-.05,173.68H20.07ZM991.05,291.71L835.13,30.76h178.03l65.6,109.59,63.38-109.59h177.6l-151.45,259.09,168.25,280.86h-178.65l-77.8-130.08-75.99,129.98-174.67.11,161.61-279.01Z"/>
        <path class="st1" d="M4595.76,364.47V29.68h-211.09l-269.59,272.05v189.03h281.6v82.59h199.09v-82.59h76.48v-126.29h-76.48ZM4396.64,364.47h-188.52l189.16-191.26-.64,191.26Z"/>
      </g>
    </g>
  </g>
</svg>